<svg xmlns="http://www.w3.org/2000/svg" width="72" height="32" viewBox="0 0 72 32" fill="none">
  <path d="M27.4666 8.85303H11.9314C11.7818 8.85303 11.7066 9.03146 11.8124 9.13575L13.3226 10.6247C13.3309 10.6329 13.3383 10.6419 13.345 10.6504H22.0381C22.1311 10.6504 22.2063 10.7246 22.2063 10.8162V15.7268C22.2063 15.8931 21.9873 15.955 21.896 15.8152C20.7626 14.079 18.978 13.2104 16.5435 13.2104C15.1804 13.2104 14.0618 13.4785 13.1871 14.0138C12.3124 14.5495 11.6633 15.2351 11.2397 16.0699C10.8158 16.905 10.6042 17.7768 10.6042 18.6845C10.6042 19.6104 10.8067 20.4912 11.2121 21.3264C11.617 22.1615 12.2157 22.8471 13.0074 23.3824C13.799 23.9181 14.7659 24.1858 15.9076 24.1858C17.0492 24.1679 17.9834 23.8909 18.7111 23.3551C19.4383 22.8198 19.8023 22.0979 19.8023 21.1899C19.8023 20.7589 19.6945 20.2887 19.4788 19.7795C19.2396 19.2149 18.6074 18.9171 18.0074 19.0747L17.9372 19.0931C17.4273 19.2271 17.1538 19.7689 17.3455 20.2533C17.4732 20.576 17.5372 20.8518 17.5372 21.0811C17.5372 21.4445 17.4128 21.6987 17.1645 21.8437C16.9158 21.9892 16.6439 22.0617 16.3497 22.0617C15.6869 22.0438 15.2217 21.8258 14.9547 21.4082C14.6878 20.9907 14.5544 20.5095 14.5544 19.9649C14.5911 18.8209 14.9965 17.9222 15.77 17.2688C16.4695 16.6516 17.2616 16.3428 18.1454 16.3428C18.7714 16.3428 19.3838 16.5294 19.9825 16.9009C20.5808 17.2733 21.0828 17.8587 21.4877 18.6576C21.8918 19.4556 22.1315 20.4977 22.2054 21.7843C22.2054 21.7875 22.2059 21.7912 22.2059 21.7944V23.9279C22.2059 24.6999 22.7839 25.3538 23.5595 25.4589L24.9883 25.6528C25.5325 25.7265 26.0176 25.3098 26.0176 24.768V10.8162C26.0176 10.7246 26.0928 10.6504 26.1857 10.6504H27.9166C28.2657 10.6504 28.5178 10.3204 28.4211 9.98963L28.2616 9.44333C28.16 9.09338 27.8356 8.85303 27.4666 8.85303Z" fill="url(#paint0_linear_971_10480)"/>
  <path d="M19.6791 20.7768C19.6791 21.6849 19.3151 22.4068 18.5879 22.9421C17.8603 23.4778 16.9256 23.7548 15.7844 23.7727C14.6423 23.7727 13.6754 23.5051 12.8842 22.9694C12.0921 22.4341 11.4934 21.7484 11.0889 20.9133C10.8938 20.512 10.7463 20.0997 10.6455 19.6769C10.7393 20.2431 10.9145 20.7911 11.1715 21.3207C11.5764 22.1558 12.1751 22.8414 12.9668 23.3768C13.7585 23.9125 14.7254 24.1801 15.867 24.1801C17.0087 24.1622 17.9429 23.8852 18.6705 23.3495C19.3977 22.8142 19.7618 22.0923 19.7618 21.1842C19.7618 20.9328 19.7246 20.6676 19.6514 20.3898C19.6696 20.5218 19.6791 20.6509 19.6791 20.7768Z" fill="url(#paint1_linear_971_10480)"/>
  <path d="M21.9145 10.2369H13.2214C13.2148 10.2284 13.2077 10.2194 13.1991 10.2113L11.8273 8.85876C11.7219 8.89991 11.6818 9.04127 11.7715 9.12968L13.2817 10.6187C13.29 10.6268 13.2974 10.6358 13.304 10.6443H21.9972C22.0286 10.6443 22.0575 10.6533 22.0827 10.668V10.4028C22.0823 10.3111 22.0071 10.2369 21.9145 10.2369Z" fill="url(#paint2_linear_971_10480)"/>
  <path d="M21.3642 18.2441C20.9588 17.4452 20.4568 16.8598 19.8589 16.4874C19.2602 16.1155 18.6478 15.9293 18.0218 15.9293C17.138 15.9293 16.3459 16.2381 15.6464 16.8553C14.8729 17.5088 14.4676 18.4079 14.4308 19.5514C14.4308 19.8313 14.4663 20.0944 14.537 20.3405C14.5217 20.2166 14.5134 20.0895 14.5134 19.9588C14.5502 18.8148 14.9555 17.9161 15.729 17.2627C16.4286 16.6455 17.2207 16.3367 18.1045 16.3367C18.7305 16.3367 19.3428 16.5233 19.9415 16.8948C20.5398 17.2672 21.0419 17.8526 21.4468 18.6515C21.6497 19.0515 21.8108 19.5135 21.9306 20.0362C21.8071 19.3424 21.6183 18.7452 21.3642 18.2441Z" fill="url(#paint3_linear_971_10480)"/>
  <path d="M17.4078 20.543C17.3908 20.3552 17.3363 20.1401 17.2446 19.8981C17.2404 20.0138 17.2594 20.1323 17.3053 20.2476C17.3462 20.3507 17.3797 20.4489 17.4078 20.543Z" fill="url(#paint4_linear_971_10480)"/>
  <path d="M28.3805 9.98358L28.3165 9.7644C28.2937 10.0219 28.0756 10.237 27.7934 10.237H26.0625C25.9695 10.237 25.8943 10.3111 25.8943 10.4028V24.3549C25.8943 24.8967 25.4092 25.3135 24.8651 25.2398L23.4363 25.0458C22.8375 24.9648 22.357 24.5566 22.1686 24.0196C22.2149 24.7485 22.776 25.3522 23.5189 25.4532L24.9477 25.6471C25.4919 25.7209 25.977 25.3041 25.977 24.7623V10.8102C25.977 10.7185 26.0522 10.6444 26.1451 10.6444H27.876C28.2252 10.6444 28.4772 10.3144 28.3805 9.98358Z" fill="url(#paint5_linear_971_10480)"/>
  <path d="M40.7578 24.671C40.6818 24.6535 40.628 24.5867 40.628 24.5097V23.8436V11.3438C40.628 11.2521 40.7032 11.178 40.7962 11.178H41.9651C42.3833 11.178 42.6849 10.7828 42.5692 10.3869L42.5081 10.1766C42.4213 9.87926 42.1453 9.67434 41.8313 9.67434H40.2128C39.7967 9.67434 39.4852 9.55294 39.2769 9.30973C39.1385 9.148 39.0319 8.92842 38.9583 8.6518C38.886 8.38008 38.6629 8.17272 38.3819 8.12831C38.3757 8.1275 38.3699 8.12628 38.3642 8.12546C38.2869 8.11039 38.2257 8.09898 38.1795 8.09124C38.1332 8.08391 38.0832 8.07617 38.0295 8.06843C37.9782 8.0615 37.8964 8.05743 37.7836 8.05702C37.7708 8.05702 37.7576 8.0558 37.7448 8.05335L37.7423 8.05295C37.5853 8.02443 37.4403 8.14339 37.4403 8.30104V11.8726C37.4403 12.036 37.2262 12.1003 37.1333 11.9655C36.5854 11.1715 35.9214 10.5901 35.1413 10.2215C34.2091 9.78108 33.2889 9.56068 32.3803 9.56068C31.3639 9.56068 30.5011 9.75826 29.7925 10.153C28.8331 10.727 28.0244 11.4685 27.3666 12.3769C26.8601 13.0772 26.8076 14.0028 27.2282 14.7565L27.5753 15.3777C27.8075 15.7941 28.2757 16.0308 28.7529 15.9652C28.9892 15.9326 29.2202 15.9163 29.4458 15.9163C30.9705 15.977 31.7333 16.4708 31.7333 17.3971C31.7333 17.8526 31.606 18.2478 31.3519 18.5818C31.1007 18.9122 30.1582 19.8427 30.1495 19.8569C30.1024 19.9335 30.1272 20.0333 30.2053 20.0794L31.5581 20.8823C32.0547 21.1769 32.691 21.1003 33.1009 20.6962L37.0849 16.7681C37.1845 16.67 37.3547 16.7286 37.3709 16.8663C37.4171 17.2529 37.4399 17.6579 37.4399 18.0807V22.5457V24.0995C37.4399 24.1956 37.3576 24.2706 37.2605 24.2644C36.9044 24.242 36.5486 24.231 36.1924 24.231C35.8565 24.231 35.5049 24.2457 35.1384 24.2759C35.1326 24.2763 35.1264 24.2771 35.1206 24.2779C33.1393 24.6132 32.1489 25.5392 32.1489 27.0554C32.1489 27.22 32.1642 27.3924 32.194 27.5716C32.1948 27.5765 32.1956 27.5818 32.1969 27.5867C32.4927 28.8724 33.7009 29.5385 35.8226 29.5837C38.7431 29.5686 40.3392 28.3937 40.6115 26.0586C40.6223 25.9677 40.7057 25.9034 40.7975 25.916C41.6011 26.0276 42.5961 26.2293 43.7819 26.5197C44.6757 26.7385 45.4756 26.963 46.1826 27.1931C46.5218 27.3035 46.8412 26.9809 46.7189 26.6497L46.6565 26.4802C46.5987 26.3238 46.4718 26.2016 46.3115 26.1486C45.0529 25.7335 43.2018 25.2409 40.7578 24.671ZM33.2654 16.7816C33.1579 16.8855 32.977 16.8085 32.9803 16.6598C32.9807 16.6472 32.9807 16.6349 32.9807 16.6223C32.9807 16.1974 32.8456 15.8214 32.5762 15.4947C32.3064 15.1683 31.9907 14.8836 31.6287 14.6404C31.2692 14.3992 30.9209 14.1955 30.5842 14.0289C30.5796 14.0264 30.5751 14.024 30.5705 14.0211C30.542 14.0028 30.5135 13.9857 30.4846 13.9698C30.3933 13.9201 30.373 13.7983 30.4404 13.7197C30.8759 13.2125 31.3337 12.8324 31.813 12.579C32.3444 12.2983 32.872 12.1578 33.3955 12.1578C34.4504 12.1578 35.3838 12.6878 36.1953 13.7482C36.2466 13.815 36.2395 13.9087 36.1792 13.9674L33.2654 16.7816ZM37.3126 26.6566C37.2589 27.0742 37.1048 27.416 36.8506 27.6816C36.5965 27.9472 36.2924 28.0804 35.9379 28.0804C35.276 28.0804 34.9446 27.7692 34.9446 27.1463C34.9446 26.3433 35.6987 25.8773 37.2068 25.7481C37.308 25.7396 37.3936 25.8215 37.3878 25.9217C37.3766 26.1087 37.3518 26.3535 37.3126 26.6566Z" fill="url(#paint6_linear_971_10480)"/>
  <path d="M32.9659 16.3881C32.9593 16.3339 32.9498 16.2809 32.9382 16.2284C32.9382 16.2374 32.9386 16.2463 32.9386 16.2557C32.9386 16.2683 32.9386 16.2805 32.9382 16.2932C32.9373 16.3298 32.9481 16.362 32.9659 16.3881Z" fill="url(#paint7_linear_971_10480)"/>
  <path d="M30.4433 13.6033C30.4648 13.6151 30.4867 13.6285 30.5082 13.642C30.9234 13.1739 31.3581 12.8195 31.813 12.5787C32.3444 12.298 32.8716 12.1575 33.3956 12.1575C34.4116 12.1575 35.3144 12.6492 36.1044 13.6322L36.1379 13.6C36.1987 13.5413 36.2053 13.4476 36.154 13.3808C35.3425 12.3208 34.4091 11.7904 33.3542 11.7904C32.8303 11.7904 32.3031 11.931 31.7717 12.2116C31.292 12.4654 30.8342 12.8455 30.3991 13.3523C30.3317 13.4318 30.352 13.5536 30.4433 13.6033Z" fill="url(#paint8_linear_971_10480)"/>
  <path d="M41.923 10.8114H40.7541C40.6611 10.8114 40.5859 10.8855 40.5859 10.9772V23.4766V24.1427C40.5859 24.1834 40.6016 24.2213 40.6273 24.2506V23.8433V11.3439C40.6273 11.2522 40.7025 11.178 40.7954 11.178H41.9643C42.3825 11.178 42.6841 10.7829 42.5684 10.3869L42.5424 10.2981C42.492 10.5825 42.2412 10.8114 41.923 10.8114Z" fill="url(#paint9_linear_971_10480)"/>
  <path d="M37.206 25.7482C37.2527 25.7442 37.2953 25.7601 37.3279 25.7874C37.3358 25.7018 37.3415 25.6244 37.3457 25.5551C37.3515 25.4549 37.2659 25.373 37.1647 25.3816C35.657 25.5107 34.9025 25.9772 34.9025 26.7797C34.9025 26.9068 34.9169 27.0201 34.9446 27.1211C34.9603 26.3341 35.714 25.8762 37.206 25.7482Z" fill="url(#paint10_linear_971_10480)"/>
  <path d="M33.0997 20.6954L37.0837 16.7674C37.1742 16.6782 37.3233 16.7189 37.3613 16.8309C37.3518 16.7189 37.3415 16.6081 37.3283 16.4989C37.3117 16.3612 37.1419 16.3026 37.0423 16.4007L33.0583 20.3288C32.6485 20.7329 32.0121 20.8095 31.5155 20.5149L30.2429 19.7596C30.185 19.8179 30.1499 19.8533 30.1482 19.8562C30.1011 19.9328 30.1259 20.0326 30.204 20.0786L31.5568 20.8816C32.0539 21.1765 32.6902 21.0995 33.0997 20.6954Z" fill="url(#paint11_linear_971_10480)"/>
  <path d="M46.7181 26.6501L46.683 26.5552C46.6148 26.7634 46.3826 26.9056 46.1405 26.827C45.4335 26.5968 44.6331 26.3723 43.7398 26.1535C42.5535 25.8627 41.559 25.6614 40.7553 25.5498C40.6636 25.5372 40.5797 25.6015 40.5694 25.6924C40.2971 28.0275 38.7009 29.2024 35.7805 29.2175C33.6592 29.1719 32.4506 28.5062 32.1547 27.2205C32.1539 27.2176 32.1535 27.2148 32.1531 27.2119C32.1597 27.3284 32.1725 27.4486 32.1932 27.5721C32.194 27.577 32.1948 27.5822 32.196 27.5871C32.4919 28.8728 33.7001 29.5389 35.8218 29.5841C38.7423 29.5691 40.3384 28.3942 40.6107 26.059C40.6215 25.9682 40.7049 25.9038 40.7966 25.9164C41.6003 26.0281 42.5953 26.2297 43.7811 26.5202C44.6749 26.739 45.4748 26.9634 46.1818 27.1936C46.521 27.304 46.8404 26.9814 46.7181 26.6501Z" fill="url(#paint12_linear_971_10480)"/>
  <path d="M31.6907 17.0476C31.6907 17.0419 31.6911 17.0358 31.6911 17.0301C31.6911 16.1041 30.9288 15.6104 29.4037 15.5493C29.1781 15.5493 28.9471 15.5656 28.7107 15.5982C28.2335 15.6637 27.7654 15.4271 27.5331 15.0107L27.1861 14.3894C27.0704 14.1825 26.991 13.9625 26.9464 13.738C26.9567 14.088 27.0497 14.4375 27.2274 14.7561L27.5745 15.3774C27.8067 15.7937 28.2748 16.0304 28.7521 15.9648C28.9884 15.9322 29.2194 15.9159 29.445 15.9159C30.7651 15.9689 31.5134 16.3465 31.6907 17.0476Z" fill="url(#paint13_linear_971_10480)"/>
  <path d="M67.5181 19.6324C66.726 17.7079 66.3302 16.0014 66.3302 14.5124C66.3302 12.9982 66.8839 12.0836 67.9916 11.7683C68.0073 11.7638 68.0234 11.7617 68.0396 11.7617H69.3304C69.8196 11.7617 70.1729 11.2994 70.0373 10.8357L69.9729 10.6149C69.8605 10.2296 69.5027 9.96435 69.0961 9.96435H60.3364H59.8389H57.7399C57.261 9.96435 56.8974 9.81932 56.6487 9.52845C56.4879 9.34105 56.364 9.08888 56.2764 8.77193C56.1805 8.42606 55.8876 8.16737 55.5297 8.10341C55.5202 8.10178 55.5112 8.10016 55.5025 8.09853C55.4459 8.08793 55.3599 8.07571 55.2442 8.06145C54.8244 8.00931 54.453 8.33155 54.453 8.74871V12.992C54.453 13.153 54.2439 13.2194 54.1489 13.0886C53.4018 12.0628 52.5275 11.303 51.5251 10.8085C50.383 10.2459 49.2323 9.96435 48.0725 9.96435C46.3226 9.96435 44.8586 10.5001 43.6806 11.5711C42.2993 12.933 41.6089 14.4578 41.6089 16.1464C41.6089 17.7442 42.189 19.1517 43.3493 20.3678C44.5095 21.5842 45.8809 22.1924 47.4651 22.1924C48.091 22.1924 48.7261 22.0747 49.3711 21.8384C50.3657 21.4392 51.0838 20.899 51.5255 20.2178C51.9672 19.5367 52.1883 18.8425 52.1883 18.1345C52.1883 17.7715 52.1329 17.4175 52.0226 17.0724C51.8197 16.4369 51.4652 15.9558 50.959 15.629C50.4524 15.3023 49.9045 15.139 49.3153 15.139C48.8203 15.139 48.346 15.2579 47.8923 15.4958C47.513 15.6946 47.3791 16.1664 47.5898 16.5355L47.6493 16.6398C47.8266 16.9502 48.2191 17.0736 48.5431 16.916C48.8513 16.7661 49.1182 16.6911 49.343 16.6911C49.6008 16.6911 49.7988 16.7775 49.9368 16.9498C50.0748 17.1225 50.1438 17.3177 50.1438 17.5352C50.1438 17.7898 50.0653 18.0436 49.9091 18.2978C49.7525 18.5524 49.4992 18.761 49.1496 18.9244C48.7997 19.0877 48.4497 19.1696 48.1001 19.1696C47.4737 19.1696 46.9263 18.9566 46.4565 18.5296C45.9867 18.1031 45.752 17.5356 45.752 16.8276C45.752 16.2283 45.9821 15.5569 46.4424 14.8122C46.792 14.2859 47.2895 13.8549 47.934 13.5188C48.5782 13.1831 49.26 13.0149 49.9781 13.0149C50.659 13.0149 51.3222 13.1965 51.9668 13.5595C52.6114 13.9229 53.1547 14.5222 53.5964 15.3569C54.0377 16.1908 54.3228 17.3136 54.4521 18.726C54.4526 18.7313 54.453 18.7366 54.453 18.7415V26.2423C54.453 26.325 54.5149 26.395 54.598 26.4064L58.0738 26.8782C58.1746 26.892 58.2647 26.8146 58.2647 26.714V11.9275C58.2647 11.8359 58.3399 11.7617 58.4328 11.7617H60.336H60.8612H63.0044C63.1672 11.7617 63.2366 11.9691 63.1036 12.062C62.0322 12.8108 61.4962 13.8997 61.4962 15.3296C61.4962 16.3465 61.7355 17.3315 62.2144 18.2844C62.6928 19.2377 63.2089 20.1498 63.7614 21.0216C64.5865 22.2511 65.1468 23.3906 65.4426 24.44C65.4451 24.4489 65.4468 24.4579 65.448 24.4673L65.4728 24.6877C65.4736 24.695 65.474 24.7023 65.474 24.7097C65.472 24.9777 65.3889 25.2238 65.2253 25.4474C65.0596 25.6748 64.8291 25.788 64.5349 25.788C64.2832 25.788 63.989 25.6727 63.6523 25.4417C63.3052 25.2034 62.823 25.3562 62.6842 25.7501L62.6044 25.9766C62.4284 26.4757 62.6982 27.0232 63.2069 27.1894C63.313 27.2241 63.4242 27.2562 63.5403 27.286C64.0374 27.4127 64.5072 27.4766 64.9489 27.4766C65.1881 27.4766 65.4001 27.4583 65.5844 27.422C67.6098 26.9861 68.623 25.8153 68.623 23.9087C68.623 22.8015 68.3284 21.5577 67.7392 20.1775L67.5181 19.6324Z" fill="url(#paint14_linear_971_10480)"/>
  <path d="M51.7991 16.5497C51.8181 16.6006 51.8363 16.6519 51.8532 16.7049C51.9635 17.05 52.0189 17.404 52.0189 17.767C52.0189 18.475 51.7978 19.1696 51.3561 19.8503C50.9144 20.5311 50.1959 21.0717 49.2018 21.4709C48.5568 21.7072 47.9217 21.8249 47.2957 21.8249C45.7119 21.8249 44.3401 21.2167 43.1799 20.0002C42.6973 19.4943 42.3155 18.9553 42.0337 18.3833C42.3238 19.093 42.7609 19.7542 43.3452 20.3669C44.5054 21.5833 45.8768 22.1916 47.461 22.1916C48.087 22.1916 48.722 22.0738 49.367 21.8375C50.3616 21.4383 51.0797 20.8981 51.5214 20.217C51.9631 19.5358 52.1842 18.8416 52.1842 18.1336C52.1842 17.7706 52.1288 17.4166 52.0185 17.0715C51.959 16.8841 51.8854 16.7102 51.7991 16.5497Z" fill="url(#paint15_linear_971_10480)"/>
  <path d="M53.4278 14.989C52.9857 14.1543 52.4424 13.555 51.7982 13.1916C51.1532 12.8287 50.4904 12.647 49.8095 12.647C49.0914 12.647 48.4096 12.8152 47.7654 13.1509C47.1205 13.487 46.6234 13.918 46.2738 14.4444C45.8135 15.1891 45.5834 15.8604 45.5834 16.4597C45.5834 16.916 45.6813 17.3136 45.8763 17.6529C45.7916 17.4028 45.7487 17.1274 45.7487 16.8263C45.7487 16.2271 45.9788 15.5557 46.4391 14.811C46.7887 14.2847 47.2861 13.8536 47.9307 13.5176C48.5749 13.1819 49.2567 13.0136 49.9748 13.0136C50.6557 13.0136 51.3189 13.1953 51.9635 13.5583C52.6081 13.9217 53.1514 14.5209 53.5931 15.3557C53.6142 15.3956 53.6344 15.4367 53.6551 15.4779C53.5844 15.3052 53.5088 15.1422 53.4278 14.989Z" fill="url(#paint16_linear_971_10480)"/>
  <path d="M56.3268 8.94217C56.3078 8.88717 56.2896 8.83054 56.2731 8.77106C56.2429 8.6627 56.1938 8.56248 56.1289 8.47449C56.1826 8.65211 56.2487 8.80814 56.3268 8.94217Z" fill="url(#paint17_linear_971_10480)"/>
  <path d="M47.6457 16.6385C47.823 16.949 48.2155 17.0724 48.5395 16.9147C48.8477 16.7648 49.1146 16.6899 49.3394 16.6899C49.5972 16.6899 49.7951 16.7762 49.9331 16.9486C49.9414 16.9587 49.9484 16.9693 49.9559 16.9795C49.927 16.8361 49.865 16.7033 49.7679 16.5819C49.6299 16.4096 49.4315 16.3232 49.1741 16.3232C48.9493 16.3232 48.6824 16.3982 48.3742 16.5481C48.0618 16.7001 47.6866 16.5901 47.5011 16.3041C47.5164 16.3827 47.5441 16.4605 47.5862 16.5338L47.6457 16.6385Z" fill="url(#paint18_linear_971_10480)"/>
  <path d="M70.0341 10.8345L69.9696 10.6137C69.9395 10.5102 69.8911 10.4157 69.8291 10.3322L69.8688 10.4674C70.0043 10.931 69.6511 11.3934 69.1618 11.3934H67.871C67.8549 11.3934 67.8388 11.3954 67.8231 11.3999C66.7153 11.7152 66.1616 12.6294 66.1616 14.1441C66.1616 15.6331 66.5575 17.34 67.3496 19.2641L67.5706 19.8088C68.1598 21.189 68.4545 22.4327 68.4545 23.54C68.4545 25.4466 67.4413 26.6174 65.4158 27.0533C65.2316 27.0895 65.0196 27.1079 64.7803 27.1079C64.3382 27.1079 63.8688 27.0439 63.3718 26.9172C63.2557 26.8875 63.1445 26.8553 63.0383 26.8207C62.8416 26.7563 62.6813 26.6353 62.5681 26.4821C62.6359 26.8011 62.8677 27.0773 63.2036 27.1873C63.3098 27.222 63.4209 27.2541 63.537 27.2839C64.0341 27.4106 64.5039 27.4745 64.9456 27.4745C65.1849 27.4745 65.3968 27.4562 65.5811 27.4199C67.6066 26.984 68.6197 25.8132 68.6197 23.9066C68.6197 22.7994 68.3251 21.5556 67.7359 20.1754L67.5149 19.6307C66.7228 17.7062 66.3269 15.9997 66.3269 14.5107C66.3269 12.9965 66.8806 12.0819 67.9884 11.7666C68.0041 11.7621 68.0202 11.76 68.0363 11.76H69.3271C69.8167 11.7609 70.1696 11.2985 70.0341 10.8345Z" fill="url(#paint19_linear_971_10480)"/>
  <path d="M64.8762 22.9623C64.5626 22.2318 64.1354 21.4627 63.5928 20.654C63.0404 19.7826 62.5247 18.8701 62.0458 17.9168C62.0297 17.8846 62.0144 17.8525 61.9991 17.8207C62.064 17.9759 62.1343 18.1303 62.2111 18.2835C62.6896 19.2368 63.2057 20.1489 63.7581 21.0207C64.2106 21.6949 64.5828 22.3418 64.8762 22.9623Z" fill="url(#paint20_linear_971_10480)"/>
  <path d="M62.935 11.694C63.0681 11.6012 62.9991 11.3938 62.8359 11.3938H60.6926H60.1675H58.2643C58.1713 11.3938 58.0961 11.4679 58.0961 11.5596V26.3461C58.0961 26.4467 58.0061 26.5241 57.9052 26.5102L54.4497 26.0413V26.241C54.4497 26.3237 54.5117 26.3937 54.5947 26.4051L58.0705 26.8769C58.1713 26.8907 58.2614 26.8133 58.2614 26.7127V11.9263C58.2614 11.8346 58.3366 11.7604 58.4296 11.7604H60.3327H60.8579H62.8425C62.873 11.7384 62.9036 11.716 62.935 11.694Z" fill="url(#paint21_linear_971_10480)"/>
  <path d="M15.082 8.86118L13.7193 10.2426L13.3256 10.2495L14.4333 8.85059L15.082 8.86118Z" fill="url(#paint22_linear_971_10480)"/>
  <path d="M11.7264 30.156L8.41099 28.6193C8.41099 28.6193 6.04506 27.7565 5.25627 23.9539C5.25627 23.9539 3.90513 18.1801 7.91434 10.8765L9.2725 12.1157C9.2725 12.1157 10.2852 13.0323 11.5413 11.6574C12.7974 10.2825 11.4926 9.28154 11.4926 9.28154L9.92493 7.7567C9.92493 7.7567 13.4788 2.64686 18.1673 2.18367C18.1673 2.18367 19.5986 2.10667 20.4894 2.51324L24.1408 4.23893C24.1408 4.23893 22.2567 3.31294 19.2333 4.78605C19.2333 4.78605 16.086 6.1402 12.9313 10.7286C12.9313 10.7286 7.87054 17.8497 9.09731 25.6792C9.09731 25.68 9.56463 28.9913 11.7264 30.156Z" fill="url(#paint23_linear_971_10480)"/>
  <path d="M11.1008 27.8621C11.1008 27.8621 14.4745 33.0819 21.3757 26.094L15.5261 26.0309C15.5261 26.0309 13.5544 27.8829 11.1008 27.8621Z" fill="#92278F"/>
  <path d="M21.8914 5.19394C21.8914 5.19394 24.104 4.83626 25.7473 7.02514H22.8115C22.8115 7.02514 22.7677 6.18307 21.8914 5.19394Z" fill="url(#paint24_linear_971_10480)"/>
  <path d="M5.3594 5.7838C6.27865 4.77033 6.34569 3.35081 5.50913 2.6132C4.67258 1.8756 3.24922 2.09924 2.32997 3.11271C1.41073 4.12617 1.34369 5.5457 2.18024 6.2833C3.01679 7.0209 4.44015 6.79727 5.3594 5.7838Z" fill="#92278F"/>
  <path d="M5.96279 3.26367C5.99047 3.85031 5.77974 4.4952 5.32813 5.04598C4.46125 6.10233 3.03656 6.41195 2.14572 5.73732C1.89243 5.54544 1.70939 5.29449 1.59741 5.00932C1.62262 5.54829 1.84905 6.03837 2.27546 6.36143C3.1663 7.03606 4.59099 6.72645 5.45787 5.6701C6.07807 4.91399 6.24417 3.98067 5.96279 3.26367Z" fill="url(#paint25_linear_971_10480)"/>
  <path d="M2.42554 6.87761L5.74099 10.0348C5.74099 10.0348 6.33971 10.6243 7.52268 10.3856L9.2899 12.1113C9.2899 12.1113 10.4584 13.1917 11.8021 11.4517C11.8021 11.4517 10.7943 12.3077 9.83036 11.7182L8.18007 10.1465C8.18007 10.1465 9.58203 9.59935 9.93283 7.81704C9.93283 7.81704 10.2688 6.63847 9.14404 5.69823L6.20831 2.83594C6.20831 2.83594 6.41367 3.07467 6.56572 3.4739C6.81901 4.13916 6.92396 5.2497 5.68273 6.44211C5.68273 6.44252 3.95931 8.01421 2.42554 6.87761Z" fill="#92278F"/>
  <path d="M11.462 9.1679L11.4926 9.28156C11.4926 9.28156 12.7974 10.2825 11.5413 11.6574C10.2852 13.0324 9.27248 12.1157 9.27248 12.1157C9.23116 12.0779 9.16257 12.0929 9.14191 12.1439C5.47648 21.1988 7.41187 26.4867 8.91011 28.8503L11.7264 30.1556C9.56502 28.9909 9.0977 25.6796 9.0977 25.6796C7.87093 17.8501 12.9317 10.729 12.9317 10.729C16.0864 6.14062 19.2337 4.78647 19.2337 4.78647C22.1558 3.36266 24.0131 4.17987 24.1346 4.23609L22.6963 3.55617C20.1448 2.17798 14.2523 4.69237 11.462 9.1679Z" fill="url(#paint26_linear_971_10480)"/>
  <path d="M24.1342 4.23645L24.1418 4.24025C24.1418 4.24025 24.139 4.23882 24.1342 4.23645Z" fill="url(#paint27_linear_971_10480)"/>
  <path d="M9.79808 11.7181L8.14779 10.1464C8.14779 10.1464 8.30109 10.0861 8.51843 9.94233C6.7917 9.14956 5.90209 7.68583 5.45956 6.59607C4.96993 6.9619 3.62086 7.78686 2.39368 6.87717L5.70913 10.0344C5.70913 10.0344 6.30785 10.6239 7.49082 10.3852L9.25804 12.1108C9.25804 12.1108 10.4265 13.1912 11.7702 11.4513C11.7694 11.4513 10.7621 12.3072 9.79808 11.7181Z" fill="url(#paint28_linear_971_10480)"/>
  <path d="M18.4454 26.0626C17.2967 27.0807 16.1823 28.8475 11.1207 27.9191C11.5166 28.467 14.8861 32.6452 21.3559 26.094L18.4454 26.0626Z" fill="url(#paint29_linear_971_10480)"/>
  <path opacity="0.24" d="M4.26378 3.0922C4.48608 2.9468 4.59787 2.72726 4.51348 2.60183C4.42908 2.4764 4.18046 2.49259 3.95817 2.63798C3.73587 2.78338 3.62408 3.00292 3.70847 3.12835C3.79287 3.25378 4.04149 3.2376 4.26378 3.0922Z" fill="#EFD0E4"/>
  <path opacity="0.24" d="M6.67433 3.84263C7.53212 4.55189 9.36504 6.15821 9.97946 7.41499C9.98318 6.98846 9.85798 6.2959 9.14398 5.69908L6.20825 2.83679C6.20825 2.83679 6.41361 3.07552 6.56566 3.47476C6.60781 3.58516 6.64582 3.7086 6.67433 3.84263Z" fill="#EFD0E4"/>
  <defs>
    <linearGradient id="paint0_linear_971_10480" x1="19.5233" y1="27.907" x2="19.5233" y2="10.4087" gradientUnits="userSpaceOnUse">
      <stop stop-color="#D01A8A"/>
      <stop offset="1" stop-color="#7E3C97"/>
    </linearGradient>
    <linearGradient id="paint1_linear_971_10480" x1="15.2035" y1="24.7815" x2="15.2035" y2="20.0935" gradientUnits="userSpaceOnUse">
      <stop stop-color="#D01A8A"/>
      <stop offset="1" stop-color="#7E3C97"/>
    </linearGradient>
    <linearGradient id="paint2_linear_971_10480" x1="16.9023" y1="10.9098" x2="16.9023" y2="9.02644" gradientUnits="userSpaceOnUse">
      <stop stop-color="#D01A8A"/>
      <stop offset="1" stop-color="#7E3C97"/>
    </linearGradient>
    <linearGradient id="paint3_linear_971_10480" x1="18.1808" y1="20.9298" x2="18.1808" y2="16.3373" gradientUnits="userSpaceOnUse">
      <stop stop-color="#D01A8A"/>
      <stop offset="1" stop-color="#7E3C97"/>
    </linearGradient>
    <linearGradient id="paint4_linear_971_10480" x1="17.3257" y1="20.6291" x2="17.3257" y2="19.9576" gradientUnits="userSpaceOnUse">
      <stop stop-color="#D01A8A"/>
      <stop offset="1" stop-color="#7E3C97"/>
    </linearGradient>
    <linearGradient id="paint5_linear_971_10480" x1="25.2849" y1="27.7785" x2="25.2849" y2="11.2352" gradientUnits="userSpaceOnUse">
      <stop stop-color="#D01A8A"/>
      <stop offset="1" stop-color="#7E3C97"/>
    </linearGradient>
    <linearGradient id="paint6_linear_971_10480" x1="36.8456" y1="26.3832" x2="36.8456" y2="9.66056" gradientUnits="userSpaceOnUse">
      <stop stop-color="#D01A8A"/>
      <stop offset="1" stop-color="#7E3C97"/>
    </linearGradient>
    <linearGradient id="paint7_linear_971_10480" x1="32.9519" y1="16.3644" x2="32.9519" y2="16.2404" gradientUnits="userSpaceOnUse">
      <stop stop-color="#D01A8A"/>
      <stop offset="1" stop-color="#7E3C97"/>
    </linearGradient>
    <linearGradient id="paint8_linear_971_10480" x1="33.2739" y1="13.3671" x2="33.2739" y2="11.9295" gradientUnits="userSpaceOnUse">
      <stop stop-color="#D01A8A"/>
      <stop offset="1" stop-color="#7E3C97"/>
    </linearGradient>
    <linearGradient id="paint9_linear_971_10480" x1="41.5896" y1="22.1772" x2="41.5896" y2="11.3423" gradientUnits="userSpaceOnUse">
      <stop stop-color="#D01A8A"/>
      <stop offset="1" stop-color="#7E3C97"/>
    </linearGradient>
    <linearGradient id="paint10_linear_971_10480" x1="36.1241" y1="26.8625" x2="36.1241" y2="25.5112" gradientUnits="userSpaceOnUse">
      <stop stop-color="#D01A8A"/>
      <stop offset="1" stop-color="#7E3C97"/>
    </linearGradient>
    <linearGradient id="paint11_linear_971_10480" x1="33.7433" y1="20.3602" x2="33.7433" y2="16.7045" gradientUnits="userSpaceOnUse">
      <stop stop-color="#D01A8A"/>
      <stop offset="1" stop-color="#7E3C97"/>
    </linearGradient>
    <linearGradient id="paint12_linear_971_10480" x1="39.4489" y1="28.984" x2="39.4489" y2="25.8499" gradientUnits="userSpaceOnUse">
      <stop stop-color="#D01A8A"/>
      <stop offset="1" stop-color="#7E3C97"/>
    </linearGradient>
    <linearGradient id="paint13_linear_971_10480" x1="29.3187" y1="16.5559" x2="29.3187" y2="13.986" gradientUnits="userSpaceOnUse">
      <stop stop-color="#D01A8A"/>
      <stop offset="1" stop-color="#7E3C97"/>
    </linearGradient>
    <linearGradient id="paint14_linear_971_10480" x1="55.8375" y1="27.6063" x2="55.8375" y2="10.0435" gradientUnits="userSpaceOnUse">
      <stop stop-color="#D01A8A"/>
      <stop offset="1" stop-color="#7E3C97"/>
    </linearGradient>
    <linearGradient id="paint15_linear_971_10480" x1="47.1091" y1="22.2294" x2="47.1091" y2="17.1271" gradientUnits="userSpaceOnUse">
      <stop stop-color="#D01A8A"/>
      <stop offset="1" stop-color="#7E3C97"/>
    </linearGradient>
    <linearGradient id="paint16_linear_971_10480" x1="49.6191" y1="17.6865" x2="49.6191" y2="13.1593" gradientUnits="userSpaceOnUse">
      <stop stop-color="#D01A8A"/>
      <stop offset="1" stop-color="#7E3C97"/>
    </linearGradient>
    <linearGradient id="paint17_linear_971_10480" x1="56.2278" y1="8.94549" x2="56.2278" y2="8.52252" gradientUnits="userSpaceOnUse">
      <stop stop-color="#D01A8A"/>
      <stop offset="1" stop-color="#7E3C97"/>
    </linearGradient>
    <linearGradient id="paint18_linear_971_10480" x1="48.7287" y1="16.9881" x2="48.7287" y2="16.3741" gradientUnits="userSpaceOnUse">
      <stop stop-color="#D01A8A"/>
      <stop offset="1" stop-color="#7E3C97"/>
    </linearGradient>
    <linearGradient id="paint19_linear_971_10480" x1="66.3156" y1="27.5901" x2="66.3156" y2="12.0873" gradientUnits="userSpaceOnUse">
      <stop stop-color="#D01A8A"/>
      <stop offset="1" stop-color="#7E3C97"/>
    </linearGradient>
    <linearGradient id="paint20_linear_971_10480" x1="63.4377" y1="22.9966" x2="63.4377" y2="18.3466" gradientUnits="userSpaceOnUse">
      <stop stop-color="#D01A8A"/>
      <stop offset="1" stop-color="#7E3C97"/>
    </linearGradient>
    <linearGradient id="paint21_linear_971_10480" x1="58.7273" y1="26.9827" x2="58.7273" y2="12.979" gradientUnits="userSpaceOnUse">
      <stop stop-color="#D01A8A"/>
      <stop offset="1" stop-color="#7E3C97"/>
    </linearGradient>
    <linearGradient id="paint22_linear_971_10480" x1="14.2737" y1="9.61502" x2="13.9847" y2="9.36098" gradientUnits="userSpaceOnUse">
      <stop stop-color="#D01A8A"/>
      <stop offset="1" stop-color="#7E3C97"/>
    </linearGradient>
    <linearGradient id="paint23_linear_971_10480" x1="7.74904" y1="0.630877" x2="22.9009" y2="31.6171" gradientUnits="userSpaceOnUse">
      <stop stop-color="#D01A8A"/>
      <stop offset="1" stop-color="#7E3C97"/>
    </linearGradient>
    <linearGradient id="paint24_linear_971_10480" x1="23.1214" y1="7.33278" x2="23.8719" y2="5.97956" gradientUnits="userSpaceOnUse">
      <stop stop-color="#D01A8A"/>
      <stop offset="1" stop-color="#7E3C97"/>
    </linearGradient>
    <linearGradient id="paint25_linear_971_10480" x1="1.59734" y1="4.99105" x2="6.0953" y2="4.99105" gradientUnits="userSpaceOnUse">
      <stop stop-color="#D01A8A"/>
      <stop offset="1" stop-color="#7E3C97"/>
    </linearGradient>
    <linearGradient id="paint26_linear_971_10480" x1="8.79667" y1="10.1237" x2="17.0611" y2="17.1888" gradientUnits="userSpaceOnUse">
      <stop stop-color="#D01A8A"/>
      <stop offset="1" stop-color="#7E3C97"/>
    </linearGradient>
    <linearGradient id="paint27_linear_971_10480" x1="16.407" y1="-2.21375" x2="26.7948" y2="6.62855" gradientUnits="userSpaceOnUse">
      <stop stop-color="#D01A8A"/>
      <stop offset="1" stop-color="#7E3C97"/>
    </linearGradient>
    <linearGradient id="paint28_linear_971_10480" x1="8.92483" y1="6.30806" x2="6.61378" y2="9.99147" gradientUnits="userSpaceOnUse">
      <stop stop-color="#D01A8A"/>
      <stop offset="1" stop-color="#7E3C97"/>
    </linearGradient>
    <linearGradient id="paint29_linear_971_10480" x1="15.9636" y1="25.754" x2="16.6177" y2="28.8221" gradientUnits="userSpaceOnUse">
      <stop stop-color="#D01A8A"/>
      <stop offset="1" stop-color="#7E3C97"/>
    </linearGradient>
  </defs>
</svg>